<svg id="Layer_1" xmlns="http://www.w3.org/2000/svg" xmlns:xlink="http://www.w3.org/1999/xlink" viewBox="0 0 57.6 57.6"><style>.st0{opacity:0.25;clip-path:url(#XMLID_2_);} .st1{opacity:0.25;} .st2{clip-path:url(#SVGID_2_);} .st3{clip-path:url(#XMLID_3_);} .st4{fill:#006811;} .st5{opacity:0.5;clip-path:url(#XMLID_4_);fill:#D9FF1A;} .st6{clip-path:url(#SVGID_4_);} .st7{clip-path:url(#XMLID_5_);} .st8{fill:#F5F5F7;} .st9{fill:#737EB3;} .st10{fill:#C8C8CC;}</style><defs><path id="XMLID_42_" d="M40.1 51.1V40.3s.3-2.8 2.2-2.8c1.9 0 1.7 3 5.1 3 1.7 0 4.7-.9 4.7-6.2 0-5.4-3-6-4.7-6-3.5 0-3.3 2.8-5.1 2.8-1.9 0-2.2-2.9-2.2-2.9v-4.5c0-1.7-1.4-3.1-3-3.1h-8s-2.6-.5-2.6-2.3c0-1.9 2.9-2 2.9-5.5 0-1.7-1-4.5-6.3-4.5-5.4 0-6.1 2.7-6.1 4.5 0 3.5 2.6 3.6 2.6 5.5S17 20.6 17 20.6H9.6c-1 0-1.9.5-2.4 1.3-.4.5-.6 1.1-.6 1.8v6s-.3 4.6 3.4 4.6c2.3 0 2.5-3.1 5.5-3.1 1.5 0 3.1 1.4 3.1 4.6 0 3.2-1.6 4.8-3.1 4.8-3.1 0-3.2-3.1-5.5-3.1-3.7 0-3.4 4.4-3.4 4.4v9.3c0 1.7 1.4 3.1 3 3.1h10s4.8.3 4.8-3.4c0-2.3-3-2.8-3-5.8 0-1.5 1.7-3.4 4.9-3.4s5.1 1.9 5.1 3.4c0 3.1-2.9 3.5-2.9 5.8 0 3.7 4.8 3.4 4.8 3.4h4c1.4-.1 2.8-1.5 2.8-3.2z"/></defs><use xlink:href="#XMLID_42_" overflow="visible" fill="#5FBF00"/><clipPath id="XMLID_2_"><use xlink:href="#XMLID_42_" overflow="visible"/></clipPath><g class="st0"><defs><path id="SVGID_1_" class="st1" d="M41.9 32.5H2.3V4.2l39.6-.1z"/></defs><clipPath id="SVGID_2_"><use xlink:href="#SVGID_1_" overflow="visible"/></clipPath><g class="st2"><defs><path id="XMLID_45_" d="M14.6 34V19.6c1.2-.4 2.2-1.1 3.1-1.9 1.4-1.4 2.3-3.4 2.3-5.6 0-3.3-2-6.1-4.8-7.3H15c-.1 0-.2 0-.3.1-.1.1-.1.2-.1.3v6.1c0 .3-.1.6-.3.8-.2.2-.5.3-.8.3h-2.8c-.7 0-1.2-.5-1.2-1.2V5.1c0-.2-.2-.4-.4-.4h-.2c-.9.4-1.7 1-2.5 1.7C5 7.9 4.1 9.8 4.1 12c0 3.5 2.2 6.5 5.4 7.5V27h5.1v2.9H9.5V34c-1.2.4-2.2 1.1-3.1 1.9-1.4 1.4-2.3 3.4-2.3 5.6 0 3.3 2 6.1 4.8 7.3h.2c.1 0 .2 0 .3-.1.1-.1.1-.2.1-.3v-6.1c0-.3.1-.6.3-.8.2-.2.5-.3.8-.3h2.8c.7 0 1.2.5 1.2 1.2v6.1c0 .2.2.4.4.4h.2c.9-.4 1.8-1 2.5-1.7 1.4-1.4 2.3-3.4 2.3-5.6 0-3.6-2.2-6.5-5.4-7.6z"/></defs><use xlink:href="#XMLID_45_" overflow="visible" fill="#006811"/><clipPath id="XMLID_3_"><use xlink:href="#XMLID_45_" overflow="visible"/></clipPath><g class="st3"><path class="st4" d="M16.2 34V19.6c1.2-.4 2.2-1.1 3.1-1.9 1.4-1.4 2.3-3.4 2.3-5.6 0-3.3-2-6.1-4.8-7.3h-.2c-.1 0-.2 0-.3.1-.1.1-.1.2-.1.3v6.1c0 .3-.1.6-.3.8-.2.2-.5.3-.8.3h-2.8c-.7 0-1.2-.5-1.2-1.2V5.1c0-.2-.2-.4-.4-.4h-.2c-1 .4-1.8 1-2.5 1.7C6.5 7.9 5.7 9.8 5.7 12c0 3.5 2.2 6.5 5.4 7.5V27h5.1v2.9H11V34c-1.2.4-2.2 1.1-3.1 1.9-1.4 1.4-2.3 3.4-2.3 5.6 0 3.3 2 6.1 4.8 7.3h.2c.1 0 .2 0 .3-.1.1-.1.1-.2.1-.3v-6.1c0-.3.1-.6.3-.8.2-.2.5-.3.8-.3h2.8c.7 0 1.2.5 1.2 1.2v6.1c0 .2.2.4.4.4h.2c.9-.4 1.8-1 2.5-1.7 1.4-1.4 2.3-3.4 2.3-5.6.1-3.6-2.2-6.5-5.3-7.6z"/><path class="st4" d="M16.2 29.9V27H11v2.9z"/></g><path class="st4" d="M14.6 29.9V27H9.5v2.9z"/></g><g class="st2"><path class="st4" d="M22.4 46.4V19.1c0-1.2 1-2.2 2.2-2.2h3.5c1.2 0 2.2 1 2.2 2.2v27.3c0 1.2-1 2.2-2.2 2.2h-3.5c-1.2 0-2.2-1-2.2-2.2z" id="Layer_2_83_"/><path class="st4" d="M21.9 46.6c-.1-.1-.1-.2-.2-.3-.2-.4 0-.9.4-1l7.8-3.2c.4-.2.9 0 1 .4.2.4 0 .9-.4 1l-7.8 3.2c-.3.2-.6.1-.8-.1zm.8-2.9l7.8-3.2c.4-.2.6-.6.4-1-.2-.4-.6-.6-1-.4l-7.8 3.2c-.4.2-.6.6-.4 1 0 .1.1.2.2.3.2.1.5.2.8.1zm0-3l7.8-3.2c.4-.2.6-.6.4-1-.2-.4-.6-.6-1-.4l-7.8 3.2c-.4.2-.6.6-.4 1 0 .1.1.2.2.3.2.1.5.2.8.1zm0-3.1l7.8-3.2c.4-.2.6-.6.4-1-.2-.4-.6-.6-1-.4l-7.8 3.2c-.4.2-.6.6-.4 1 0 .1.1.2.2.3.2.1.5.2.8.1zm0-9.1l7.8-3.2c.4-.2.6-.6.4-1-.2-.4-.6-.6-1-.4L22.1 27c-.4.2-.6.6-.4 1 0 .1.1.2.2.3.2.2.5.3.8.2zm0-3.1l7.8-3.2c.4-.2.6-.6.4-1s-.6-.6-1-.4L22.1 24c-.4.2-.6.6-.4 1 0 .1.1.2.2.3.2.2.5.2.8.1zm0-3l7.8-3.2c.4-.2.6-.6.4-1-.2-.4-.6-.6-1-.4L22.1 21c-.4.2-.6.6-.4 1 0 .1.1.2.2.3.2.1.5.2.8.1z" id="Layer_3_114_"/><path class="st4" d="M33.7 34.7H19c-1.2 0-2.2-1-2.2-2.2v-3.9c0-1.2 1-2.2 2.2-2.2h14.7c1.2 0 2.2 1 2.2 2.2v3.9c0 1.2-1 2.2-2.2 2.2zm2.2-17.3v-3.9c0-1.2-1-2.2-2.2-2.2H19c-1.2 0-2.2 1-2.2 2.2v3.9c0 1.2 1 2.2 2.2 2.2h14.7c1.2-.1 2.2-1 2.2-2.2z" id="Layer_4_83_"/><path class="st4" d="M21.7 34.7H19c-1.2 0-2.2-1-2.2-2.2v-3.9c0-1.2 1-2.2 2.2-2.2h2.7v8.3zm0-23.4H19c-1.2 0-2.2 1-2.2 2.2v3.9c0 1.2 1 2.2 2.2 2.2h2.7v-8.3z" id="Layer_5_104_"/><path class="st4" d="M33.7 34.7H31v-8.2h2.7c1.2 0 2.2 1 2.2 2.2v3.9c0 1.1-1 2.1-2.2 2.1zm2.2-17.3v-3.9c0-1.2-1-2.2-2.2-2.2H31v8.2h2.7c1.2 0 2.2-.9 2.2-2.1z" id="Layer_6_77_"/></g></g><g><defs><path id="XMLID_44_" d="M47.4 28.1c-3.5 0-3.3 2.8-5.1 2.8-1.2 0-1.8-1.3-2-2.1H6.5v.8s-.3 4.6 3.4 4.6c2.3 0 2.5-3.1 5.5-3.1 1.5 0 3.1 1.4 3.1 4.6 0 3.2-1.6 4.8-3.1 4.8-3.1 0-3.2-3.1-5.5-3.1-3.7 0-3.4 4.4-3.4 4.4v9.3c0 1.7 1.4 3.1 3 3.1h10s4.8.3 4.8-3.4c0-2.3-3-2.8-3-5.8 0-1.5 1.7-3.4 4.9-3.4s5.1 1.9 5.1 3.4c0 3.1-2.9 3.5-2.9 5.8 0 3.7 4.8 3.4 4.8 3.4h4c1.7 0 3-1.4 3-3.1V40.3s.3-2.8 2.2-2.8c1.9 0 1.7 3 5.1 3 1.7 0 4.7-.9 4.7-6.2-.1-5.5-3.1-6.2-4.8-6.2z"/></defs><use xlink:href="#XMLID_44_" overflow="visible" fill="#95E100"/><clipPath id="XMLID_4_"><use xlink:href="#XMLID_44_" overflow="visible"/></clipPath><path class="st5" d="M55 17.1v32c0 1-.8 1.8-1.8 1.8H11.6c-1 0-1.8-.8-1.8-1.8v-32c0-1 .8-1.8 1.8-1.8h41.6c.9 0 1.8.8 1.8 1.8z"/></g><g><defs><path id="SVGID_3_" d="M44 28.7H4.4V.3L44 .2z"/></defs><clipPath id="SVGID_4_"><use xlink:href="#SVGID_3_" overflow="visible"/></clipPath><g class="st6"><defs><path id="XMLID_43_" d="M16.7 33.1V18.7c1.2-.4 2.2-1.1 3.1-1.9 1.4-1.4 2.3-3.4 2.3-5.6 0-3.3-2-6.1-4.8-7.3h-.2c-.1 0-.2 0-.3.1-.1.1-.1.2-.1.3v6.1c0 .3-.1.6-.3.8-.2.2-.5.3-.8.3h-2.8c-.7 0-1.2-.5-1.2-1.2v-6c0-.2-.2-.4-.4-.4H11c-.9.4-1.8 1-2.5 1.7C7.1 7 6.2 9 6.2 11.2c0 3.5 2.2 6.5 5.4 7.5v7.4h5.1V29h-5.1v4.1c-1.2.4-2.2 1.1-3.1 1.9-1.4 1.4-2.3 3.4-2.3 5.6 0 3.3 2 6.1 4.8 7.3h.2c.1 0 .2 0 .3-.1.1-.1.1-.2.1-.3v-6.1c0-.3.1-.6.3-.8.2-.2.5-.3.8-.3h2.8c.7 0 1.2.5 1.2 1.2v6.1c0 .2.2.4.4.4h.2c.9-.4 1.8-1 2.5-1.7 1.4-1.4 2.3-3.4 2.3-5.6 0-3.5-2.2-6.5-5.4-7.6z"/></defs><use xlink:href="#XMLID_43_" overflow="visible" fill="#C8C8CC"/><clipPath id="XMLID_5_"><use xlink:href="#XMLID_43_" overflow="visible"/></clipPath><g class="st7"><path class="st8" d="M18.3 33.1V18.7c1.2-.4 2.2-1.1 3.1-1.9 1.4-1.4 2.3-3.4 2.3-5.6 0-3.3-2-6.1-4.8-7.3h-.2c-.1 0-.2 0-.3.1-.1.1-.1.2-.1.3v6.1c0 .3-.1.6-.3.8-.2.2-.5.3-.8.3h-2.8c-.7 0-1.2-.5-1.2-1.2v-6c0-.2-.2-.4-.4-.4h-.2c-.9.4-1.8 1-2.5 1.7C8.6 7 7.8 9 7.8 11.2c0 3.5 2.2 6.5 5.4 7.5v7.4h5.1V29h-5.1v4.1c-1.2.4-2.2 1.1-3.1 1.9-1.4 1.4-2.3 3.4-2.3 5.6 0 3.3 2 6.1 4.8 7.3h.2c.1 0 .2 0 .3-.1.1-.1.1-.2.1-.3v-6.1c0-.3.1-.6.3-.8.2-.2.5-.3.8-.3h2.8c.7 0 1.2.5 1.2 1.2v6.1c0 .2.2.4.4.4h.2c.9-.4 1.8-1 2.5-1.7 1.4-1.4 2.3-3.4 2.3-5.6 0-3.5-2.3-6.5-5.4-7.6z"/><path class="st8" d="M18.3 29.1v-2.9h-5.2v2.9z"/></g><path class="st9" d="M16.7 29.1v-2.9h-5.1v2.9z"/></g><g class="st6"><path class="st10" d="M24.5 45.6V18.3c0-1.2 1-2.2 2.2-2.2h3.5c1.2 0 2.2 1 2.2 2.2v27.3c0 1.2-1 2.2-2.2 2.2h-3.5c-1.2 0-2.2-1-2.2-2.2z" id="Layer_2_79_"/><path class="st9" d="M24 45.7c-.1-.1-.1-.2-.2-.3-.2-.4 0-.9.4-1l7.8-3.2c.4-.2.9 0 1 .4.2.4 0 .9-.4 1l-7.8 3.2c-.3.2-.6.1-.8-.1zm.8-2.8l7.8-3.2c.4-.2.6-.6.4-1-.2-.4-.6-.6-1-.4l-7.8 3.2c-.4.2-.6.6-.4 1 0 .1.1.2.2.3.2.1.5.2.8.1zm0-3.1l7.8-3.2c.4-.2.6-.6.4-1-.2-.4-.6-.6-1-.4l-7.8 3.2c-.4.2-.6.6-.4 1 0 .1.1.2.2.3.2.1.5.2.8.1zm0-3l7.8-3.2c.4-.2.6-.6.4-1-.2-.4-.6-.6-1-.4l-7.8 3.2c-.4.2-.6.6-.4 1 0 .1.1.2.2.3.2.1.5.2.8.1zm0-9.2l7.8-3.2c.4-.2.6-.6.4-1-.2-.4-.6-.6-1-.4l-7.8 3.2c-.4.2-.6.6-.4 1 0 .1.1.2.2.3.2.2.5.2.8.1zm0-3l7.8-3.2c.4-.2.6-.6.4-1-.2-.4-.6-.6-1-.4l-7.8 3.2c-.4.2-.6.6-.4 1 0 .1.1.2.2.3.2.1.5.2.8.1zm0-3.1l7.8-3.2c.4-.2.6-.6.4-1-.2-.4-.6-.6-1-.4l-7.8 3.2c-.4.2-.6.6-.4 1 0 .1.1.2.2.3.2.2.5.2.8.1z" id="Layer_3_88_"/><path class="st10" d="M35.8 33.8H21.1c-1.2 0-2.2-1-2.2-2.2v-3.9c0-1.2 1-2.2 2.2-2.2h14.7c1.2 0 2.2 1 2.2 2.2v3.9c0 1.2-1 2.2-2.2 2.2zM38 16.5v-3.9c0-1.2-1-2.2-2.2-2.2H21.1c-1.2 0-2.2 1-2.2 2.2v3.9c0 1.2 1 2.2 2.2 2.2h14.7c1.2 0 2.2-1 2.2-2.2z" id="Layer_4_82_"/><path class="st9" d="M23.8 33.8h-2.7c-1.2 0-2.2-1-2.2-2.2v-3.9c0-1.2 1-2.2 2.2-2.2h2.7v8.3zm0-23.3h-2.7c-1.2 0-2.2 1-2.2 2.2v3.9c0 1.2 1 2.2 2.2 2.2h2.7v-8.3z" id="Layer_5_80_"/><path class="st8" d="M35.8 33.8h-2.7v-8.2h2.7c1.2 0 2.2 1 2.2 2.2v3.9c0 1.1-1 2.1-2.2 2.1zM38 16.5v-3.9c0-1.2-1-2.2-2.2-2.2h-2.7v8.2h2.7c1.2.1 2.2-.9 2.2-2.1z" id="Layer_6_73_"/></g></g></svg>
