<svg id="Layer_1" xmlns="http://www.w3.org/2000/svg" xmlns:xlink="http://www.w3.org/1999/xlink" viewBox="0 0 57.6 57.6"><style>.st0{fill:#FFFFFF;} .st1{fill:#E1E1E6;} .st2{fill:#737EB3;} .st3{clip-path:url(#XMLID_2_);} .st4{opacity:0.5;} .st5{fill:#C8C8CC;} .st6{fill:#CC7700;} .st7{fill:#994C00;}</style><path class="st0" d="M8.4 39.5c-2.5 0-4.6-2.1-4.6-4.6v-7.4c0-2.5 2.1-4.6 4.6-4.6h36.4c2.5 0 4.6 2.1 4.6 4.6v7.4c0 2.5-2.1 4.6-4.6 4.6H8.4z"/><path class="st1" d="M44.8 23.8c2 0 3.6 1.6 3.6 3.6v7.4c0 2-1.6 3.6-3.6 3.6H8.4c-2 0-3.6-1.6-3.6-3.6v-7.4c0-2 1.6-3.6 3.6-3.6h36.4m0-2H8.4c-3.1 0-5.6 2.5-5.6 5.6v7.4c0 3.1 2.5 5.6 5.6 5.6h36.4c3.1 0 5.6-2.5 5.6-5.6v-7.4c0-3.1-2.5-5.6-5.6-5.6z"/><g><path class="st2" d="M13.8 11.4c6.2-6.2 16.2-6.2 22.4 0 5.6 5.6 6.1 14.5 1.4 20.7l2.4 2.4-3.1 3.1-2.4-2.4c-6.2 4.7-15.1 4.2-20.7-1.4-6.2-6.3-6.2-16.3 0-22.4z" id="Layer_2_6_"/><defs><circle id="XMLID_9_" cx="25" cy="22.5" r="12.9"/></defs><use xlink:href="#XMLID_9_" overflow="visible" fill="#0D96FF"/><clipPath id="XMLID_2_"><use xlink:href="#XMLID_9_" overflow="visible"/></clipPath><g class="st3"><path class="st0" d="M16.7 49.8C7.7 49.8.3 42.4.3 33.4v-.7c0-9 7.4-16.4 16.4-16.4h19.8c9 0 16.4 7.4 16.4 16.4v.7c0 9-7.4 16.4-16.4 16.4H16.7z"/><path class="st1" d="M36.6 18.3c7.9 0 14.4 6.5 14.4 14.4v.7c0 7.9-6.5 14.4-14.4 14.4H16.7c-7.9 0-14.4-6.5-14.4-14.4v-.7c0-7.9 6.5-14.4 14.4-14.4h19.9m0-4H16.7c-10.1 0-18.4 8.3-18.4 18.4v.7c0 10.1 8.3 18.4 18.4 18.4h19.8c10.1 0 18.4-8.3 18.4-18.4v-.7c.1-10.1-8.2-18.4-18.3-18.4z"/></g><g id="Layer_4_8_" class="st4"><path class="st5" d="M25.8 11.2c-7.1 0-12.9 5.8-12.9 12.9 0 2 .4 3.8 1.2 5.5-1.3-2-2-4.4-2-6.9 0-7.1 5.8-12.9 12.9-12.9 5.2 0 9.6 3 11.7 7.4-2.3-3.7-6.3-6-10.9-6z"/></g><g id="Layer_5_3_"><path class="st6" d="M53.1 50.6c1.5-1.5 2-3.3 1.3-4.1L40.6 33.9c-.8-.8-2.1-.8-3.6.7s-1.5 2.8-.7 3.6L49 51.9c.7.8 2.6.2 4.1-1.3z"/></g><g id="Layer_6_5_"><path class="st7" d="M51.6 44l-5.2 5.1-6.2-6.7 4.6-4.6z"/></g></g></svg>
