<svg id="Layer_1" xmlns="http://www.w3.org/2000/svg" viewBox="0 0 57.6 57.6"><style>.st0{fill:#FFC44D;} .st1{fill:#FFAA00;} .st2{fill:#737EB3;} .st3{fill:#8002FE;} .st4{fill:#A44CFD;}</style><path class="st0" d="M28.8 5.2C15.9 5.2 5.4 15.6 5.4 28.5v1c-1.3.3-2.4 1.4-2.4 2.8 0 1.5 1.2 2.8 2.8 2.8h.5c2.8 9.7 11.8 16.8 22.4 16.8C41.6 51.9 52 41.5 52 28.6c.1-13-10.4-23.4-23.2-23.4z"/><path class="st1" d="M52.1 29.6v-1c0-6.2-2.4-11.9-6.4-16.1 2.3 3.6 3.6 8 3.6 12.6 0 13.2-10.7 24-24 24-4.6 0-8.9-1.3-12.6-3.6 4.2 4 9.8 6.4 16.1 6.4 10.6 0 19.6-7.1 22.4-16.8h.5c1.5 0 2.8-1.2 2.8-2.8 0-1.4-1.1-2.6-2.4-2.7z"/><path class="st1" d="M43.4 15.2c-.2 0-.4-.1-.6-.3-.6-.7-1.5-1.1-2.4-1.1-.9 0-1.8.4-2.4 1.1-.3.3-.8.4-1.1.1-.3-.3-.4-.8-.1-1.1.9-1 2.2-1.6 3.6-1.6s2.7.6 3.6 1.6c.3.3.3.8-.1 1.1-.1.1-.3.2-.5.2z"/><path class="st2" d="M28.1 43.5c-2.9 0-5.6-1.1-7.1-2.5-.5-.4-.5-1.2-.1-1.6.4-.5 1.2-.5 1.6-.1 1.6 1.4 4.8 2.4 7.8 1.6.6-.2 1.3.2 1.4.8.2.6-.2 1.3-.8 1.4-.8.2-1.8.4-2.8.4z"/><path class="st3" d="M25 28.8c0 3.8-3.1 7-7 7h-3.6c-3.8 0-7-3.1-7-7v-3.7c0-3.8 3.1-3.1 7-3.1H18c3.8 0 7-.8 7 3.1v3.7zM50.3 28.8c0 3.8-3.3 7-7.3 7h-3.8c-4 0-7.3-3.1-7.3-7v-3.7c0-3.8 3.3-3.1 7.3-3.1H43c4 0 7.3-.8 7.3 3.1v3.7z"/><path class="st4" d="M41.8 39.9c-5 0-8.4-5.9-13.1-5.9s-8.5 5.9-13.1 5.9C9.5 39.9 5 34.1 4.9 24.2c0-6.1 1.8-8.1 9.7-8.1 7.9 0 10.3 3.2 14.1 3.2s6.2-3.2 14.1-3.2c7.9 0 9.8 2 9.7 8.1-.1 10-4.6 15.7-10.7 15.7zM18.5 23.7c-4.8.2-6.8 3.1-6.8 3.8 0 .7 3.2 2.7 6.3 2.7 3.1 0 6.8-1.1 6.8-2.2s-1.8-4.5-6.3-4.3zm20.4 0c-4.6-.2-6.3 3.2-6.3 4.3 0 1 3.7 2.2 6.8 2.2 3.1 0 6.3-2 6.3-2.7 0-.7-2-3.5-6.8-3.8z"/></svg>
