<svg id="Layer_1" xmlns="http://www.w3.org/2000/svg" viewBox="0 0 57.6 57.6"><style>.st0{fill:#535A80;} .st1{fill:#737EB3;} .st2{fill:#F5F5F7;} .st3{fill:#C8C8CC;} .st4{fill:#FAFAFC;} .st5{fill:#FFFFFF;} .st6{fill:#0D96FF;} .st7{fill:#E1E1E6;}</style><path class="st0" d="M41.7 48H45c.6 0 1-.5 1-1 0-.6-.5-1-1-1h-3.3c-.6 0-1 .5-1 1s.4 1 1 1z" id="Layer_6_7_"/><path class="st1" d="M36.8 7.9H4.5c-.6 0-1.1.5-1.1 1.1v30.1c0 .5.4.9 1 .9h32.5c.6 0 1-.4 1-.9V9c0-.6-.5-1.1-1.1-1.1z" id="Layer_2_7_"/><circle class="st2" cx="6.1" cy="10.5" r=".7" id="Layer_3_8_"/><circle class="st2" cx="35.2" cy="10.5" r=".7" id="Layer_4_9_"/><circle class="st2" cx="8.4" cy="10.5" r=".7" id="Layer_5_4_"/><path class="st2" d="M31.3 11.3H11.8c-.4 0-.8-.4-.8-.8v-.1c0-.4.4-.8.8-.8h19.4c.4 0 .8.4.8.8v.1c.1.4-.3.8-.7.8z" id="Layer_6_6_"/><path class="st2" d="M5.6 13v23.9c0 .5.4.9.9.9h28.4c.5 0 .9-.4.9-.9V13H5.6z" id="Layer_8"/><path class="st3" d="M50.4 11.4h-3.2c-.3 0-.6.3-.6.6v.5c0 .3.3.6.6.6h3.2c.3 0 .6-.3.6-.6V12c-.1-.4-.3-.6-.6-.6z" id="Layer_2_8_"/><g id="Layer_3_9_"><path class="st3" d="M54 14.3v33c0 1.3-1 2.3-2.3 2.3H34.9c-1.3 0-2.3-1-2.3-2.3v-33c0-1.3 1-2.3 2.3-2.3h16.8c1.3 0 2.3 1 2.3 2.3z"/></g><g id="Layer_4_10_"><path class="st4" d="M51.8 15.7v27.5c0 .6-.5 1.1-1.1 1.1H36c-.6 0-1.1-.5-1.1-1.1V15.7c0-.6.5-1.1 1.1-1.1h14.7c.6-.1 1.1.5 1.1 1.1z"/></g><g id="Layer_5_5_"><path class="st5" d="M34.8 37.2V15.5c0-.5.5-1 1-1h11.8L34.8 37.2z"/></g><g id="Layer_7_4_"><path class="st6" d="M38.3 36.9c-1 0-1.8-.8-1.8-1.8v-1.3h-4.2c-1.1 0-1.9-.9-1.9-1.9V29c0-1.1.9-1.9 1.9-1.9h4.2v-1.6c0-1 .8-1.8 1.8-1.8.4 0 .8.1 1.1.4l6.2 4.8c.4.3.7.9.7 1.4 0 .6-.3 1.1-.7 1.4l-6.2 4.8c-.3.3-.7.4-1.1.4z"/><path class="st2" d="M38.3 24.1c.3 0 .6.1.8.3l6.2 4.8c.7.5.7 1.6 0 2.1l-6.2 4.8c-.2.2-.5.3-.8.3-.7 0-1.3-.5-1.3-1.3v-1.8h-4.7c-.8 0-1.4-.6-1.4-1.4V29c0-.8.6-1.4 1.4-1.4H37v-2.1c0-.9.6-1.4 1.3-1.4m0-1c-1.3 0-2.3 1-2.3 2.3v1.1h-3.7c-1.3 0-2.4 1.1-2.4 2.4v2.9c0 1.3 1.1 2.4 2.4 2.4H36v.8c0 1.3 1 2.3 2.3 2.3.5 0 1-.2 1.4-.5l6.2-4.8c.6-.4.9-1.1.9-1.8s-.3-1.4-.9-1.8l-6.2-4.8c-.4-.3-.9-.5-1.4-.5z"/></g><g id="Layer_7_5_"><path class="st6" d="M28.5 29.9c-.4 0-.8-.1-1.1-.4l-6.2-4.8c-.4-.3-.7-.9-.7-1.4 0-.6.3-1.1.7-1.4l6.2-4.8c.3-.2.7-.4 1.1-.4 1 0 1.8.8 1.8 1.8v1.3h4.2c1.1 0 1.9.9 1.9 1.9v2.9c0 1.1-.9 1.9-1.9 1.9h-4.2V28c0 .5-.2 1-.6 1.3-.3.4-.8.6-1.2.6z"/><path class="st2" d="M28.5 17.1c.7 0 1.3.5 1.3 1.3v1.8h4.7c.8 0 1.4.6 1.4 1.4v2.9c0 .8-.6 1.4-1.4 1.4h-4.7V28c0 .8-.6 1.3-1.3 1.3-.3 0-.6-.1-.8-.3l-6.2-4.8c-.7-.5-.7-1.6 0-2.1l6.2-4.8c.2-.1.5-.2.8-.2m0-1c-.5 0-1 .2-1.4.5l-6.2 4.8c-.6.4-.9 1.1-.9 1.8s.3 1.4.9 1.8l6.2 4.8c.4.3.9.5 1.4.5 1.3 0 2.3-1 2.3-2.3v-1h3.7c1.3 0 2.4-1.1 2.4-2.4v-2.9c0-1.3-1.1-2.4-2.4-2.4h-3.7v-.8c0-1.4-1.1-2.4-2.3-2.4z"/></g><g id="Layer_6_53_"><path class="st7" d="M41.7 47.9h3.1c.5 0 1-.4 1-1 0-.5-.4-1-1-1h-3.1c-.5 0-1 .4-1 1s.4 1 1 1z"/></g></svg>
