<svg id="Layer_1" xmlns="http://www.w3.org/2000/svg" viewBox="0 0 57.6 57.6"><style>.st0{fill:none;} .st1{fill:#FFC899;} .st2{fill:#FF7700;} .st3{fill:#994C00;} .st4{fill:#FF9F4D;} .st5{fill:#E63821;} .st6{fill:#B35300;}</style><path class="st0" d="M42.9 23.1c3.7 0 6.6 3 6.6 6.7v-.1c0-3.7-2.9-6.6-6.6-6.6zM21.3 42.9c0-.1 0-.1 0 0v0zM23.8 47.8zM36.2 29.5c.1-3.5 3-6.4 6.6-6.4-3.6 0-6.5 2.9-6.6 6.4z"/><path class="st1" d="M23.8 47.8l-.6-.6-.1-.1-.5-.5-.1-.1c-.2-.2-.3-.5-.5-.8-.1-.3-.2-.5-.3-.8-.2-.6-.4-1.2-.5-1.8v-.2-12.5-.5c0-3.7-2.9-6.6-6.6-6.6S8 26.2 8 29.9v2.9H1.5c0 .2.1.5.2.8 5.6 10 11.5 14.1 22.7 14.8-.1-.1-.2-.2-.3-.2 0-.2-.2-.3-.3-.4zM19 31.6l-4.2 4-4.3-2.9c-.2-.2-.4-.2-.5-.4-1.3-1.1-1.4-2.9-.4-4.2 1.1-1.3 2.9-1.4 4.2-.4.1.2.2.2.3.4.1-.2.2-.2.3-.4 1.1-1.2 2.9-1.4 4.2-.4 1.3 1.2 1.4 3 .4 4.3zM55.9 32.7H49.5v-2.3-.1-.5c0-3.7-2.9-6.7-6.6-6.7-3.6 0-6.6 2.9-6.6 6.5v12.8c0 .7-.1 1.3-.3 1.9 0 .1-.1.3-.1.5 0 .1-.1.2-.1.2-.1.3-.2.5-.3.8-.2.3-.3.5-.5.8l-.1.1c-.2.2-.3.4-.5.5l-.2.2-.5.5c-.1 0-.1.1-.2.1-.1.1-.3.2-.4.3-.1 0-.1.1-.2.1l-.1.1c11.3-.8 17.2-4.8 22.8-14.8.3-.4.4-.7.3-1zm-8.4-.2l-4.8 3.2-3.8-3.6-.5-.5c-1.1-1.2-.9-3.1.4-4.2 1.2-1.1 3.1-.9 4.2.4.2.1.2.2.3.4.1-.2.2-.3.3-.4 1.2-1.1 3.1-.9 4.2.4.9 1.2.8 3.1-.3 4.3z"/><path class="st2" d="M4.2 8.1s-.1 0 0 0c1.3 0 2.7.3 4 .7-1.3-.5-2.6-.7-4-.7z"/><path class="st2" d="M33.6 47.8c.1 0 .1-.1.2-.1l.5-.5.2-.2c.2-.2.3-.4.5-.5l.1-.1c.2-.2.3-.5.5-.8.2-.2.2-.5.3-.8 0-.1.1-.2.1-.2.1-.1.1-.3.1-.5.2-.6.3-1.2.3-1.9v-12-.1V29.3c.1-3.6 3-6.4 6.6-6.4 3.7 0 6.6 2.9 6.6 6.6v3H56c0-.3-.1-.6-.2-.8-1.5-2.8-3.1-5.4-4.8-7.9 1.2-.9 2.2-2.1 3-3.5 2.3-3.9 2.1-8.5.1-12.2-.2-.2-.4-.4-.7-.4-2.4 0-4.7.8-6.6 2.2 1.6-1.2 3.6-1.9 5.6-2h1.2V8c-1.1.6-6 3.2-8.7 9.3-.8-.7-1.6-1.2-2.5-1.8 0 0 0-.1.1-.1-3.8-2.2-8.1-3.4-13.7-3.4-5.4 0-9.7 1.3-13.4 3.5-1 .5-1.9 1.2-2.7 1.9-2.7-6-7.6-8.8-8.7-9.2 0 0 0-.1-.1-.1-.2.1-.3.2-.4.3-2 3.6-2.2 8.3.1 12.2.8 1.4 1.8 2.5 3 3.5-1.7 2.3-3.3 4.9-4.8 7.8-.2.2-.2.5-.2.8H8v-2.4-.5c0-3.7 2.9-6.6 6.6-6.6s6.6 2.9 6.6 6.6V43c.1.6.2 1.3.5 1.8.1.2.2.5.3.8.2.2.3.5.5.8l.1.1c.2.2.3.4.5.5l.1.1.6.6c.1.1.3.2.4.3 1.3.9 2.8 1.5 4.5 1.5 1.6 0 3.1-.5 4.3-1.3.1 0 .1-.1.2-.1.2-.1.3-.2.4-.3zm-8.9-2.4c-.3-.3-.2-.8.1-1.1.3-.3.8-.2 1.1.1.7.8 1.7 1.3 2.8 1.3s2.1-.5 2.8-1.3c.3-.3.8-.4 1.1-.1.3.3.4.8.1 1.1-.8 1.1-2.3 1.8-3.9 1.8s-3.1-.7-4.1-1.8zm7.7-5.8L31 41.2s-.3.3-.8.5c-.2.2-.5.2-.8.3-.2.1-.3.1-.5.1h-1c-.2 0-.3-.1-.5-.1s-.3-.1-.4-.2c-.2 0-.2-.1-.4-.2-.5-.2-.8-.5-.8-.5l-1.4-1.4c-.7-.7-.7-1.8 0-2.5.6-.5 1.1-.7 1.6-.6h4c.5 0 .8-.1.8-.1.9-.1 1.7.6 1.8 1.6.4.6.1 1.2-.2 1.5z"/><path class="st3" d="M31.1 36.7s-.3.1-.8.1h-4c-.5-.1-1 .2-1.6.6-.7.7-.7 1.8 0 2.5l1.4 1.4s.3.2.8.5c.2.1.2.2.4.2.1.1.2.2.4.2s.3.1.5.1h1c.2 0 .3 0 .5-.1.3-.1.5-.2.8-.3.5-.2.8-.5.8-.5l1.4-1.6c.3-.3.5-.8.5-1.3-.4-1.2-1.2-1.9-2.1-1.8z"/><path class="st4" d="M44.8 17.4c2.7-6 7.6-8.7 8.7-9.3h-1.2c-2.1.2-4 .9-5.6 2-1.4 1-2.7 2.4-3.7 4.1-.3.4-.5.9-.7 1.3 0 0 0 .1-.1.1 1 .6 1.9 1.2 2.6 1.8zM12.6 17.4c.8-.7 1.7-1.4 2.7-1.9-.2-.5-.4-1-.7-1.3-1.6-2.6-3.9-4.4-6.5-5.4-1.3-.5-2.6-.7-4-.7h-.2s-.1 0-.1.1c0 0 0 .1.1.1 1.2.4 6 3.1 8.7 9.1z"/><path class="st5" d="M43.6 27.9c-.2.1-.2.2-.3.4-.1-.2-.2-.3-.3-.4-1.1-1.3-2.9-1.4-4.2-.4-1.3 1.1-1.4 2.9-.4 4.2l.5.5 3.8 3.6 4.8-3.2c1.1-1.1 1.3-3 .3-4.2-1.1-1.5-3-1.6-4.2-.5zM14.4 27.8c-.1.2-.2.2-.3.4-.1-.2-.2-.2-.3-.4-1.3-1.1-3.1-.9-4.2.4s-.9 3.1.4 4.2c.2.2.3.2.5.4l4.3 2.9 4.2-4c1.1-1.3.9-3.1-.4-4.2-1.3-1.2-3.2-.9-4.2.3z"/><path class="st6" d="M32.6 45.4c.3-.3.2-.8-.1-1.1-.3-.3-.8-.2-1.1.1-.7.8-1.7 1.3-2.8 1.3s-2.1-.5-2.8-1.3c-.2-.3-.8-.4-1.1-.1-.3.2-.4.8-.1 1.1 1 1.1 2.4 1.8 4 1.8s3.1-.7 4-1.8z"/></svg>
